<?xml version="1.0" encoding="UTF-8"?>
<svg id="Layer_1" data-name="Layer 1" xmlns="http://www.w3.org/2000/svg" viewBox="0 0 1200 400">
  <defs>
    <style>
      .cls-1 {
        fill: #161616;
      }
    </style>
  </defs>
  <path class="cls-1" d="M87.04,215.86c2.3-.82,6.25.14,9.03-.82.43-.2.39-.62.22-.99-.18-.38-.35-.68-.03-.77,1.94-.34,8.87,0,10.14-.22.49-.08.63-.24,1.11-.85.92-1.15,4.74-1.26,5.59-2.31.16-.19.35-.37.58-.39.38-.03.77.26,1.15.38.73.28,1.51-.15,2.05-.66.54-.42.4-.96-.06-1.49-.34-.4-.6-.81-.36-1.1.22-.28.62-.42.88-.66.86-.55.06-1.5-.05-2.23-.05-.3.03-.51.27-.62.76-.18,2.76-.56,3.46-1.5,1.94-2.73,5.3-1.97,8.18-2.96.74-.27,1.09-.73,1.14-1.57.04-.49-.03-1.09-.03-1.53,0-.35.03-.59.15-.66.48-.25,2.29,1.56,2.83,1.37.46-.09.47-.75.65-1.17.89-3.19,5.74-2.36,7.86-3.46,1.23-.57,1.76-1.74,2.63-2.73.88-1.06,2.36-1.94,3.74-2.33,1.28-.41,2.65-.61,3.97-.31,1.71.36,2.2,1.83,3.7,2.26.61.22,1.56.15,2.14.38.52.21.24,1.08.85,1.87.17.23.4.43.65.59.64.34,1.41.61,2,.23.61-.72-.9-3.03-.34-3.4.26-.19,1.09.23,1.98.34.72.11,1.52.11,2.19-.04,1.48-.29,2.07-1.36,3.45-1.77,6.84-2.17,15.01-2.71,21.33-5.55.66-.43.9-1.1,1.35-1.18.62-.18,1.78.85,2.45.76.41-.13.55-.5.93-1.1.76-1.18,1.6-2.69,2.36-3.87.53-.9,1.12-1.23,1.97-1.12.97.12,1.73.91,2.84.67.86-.13,1.6-.78,2.29-1.4,1.38-1.49,3.03-2.23,4.54-3.53,2.27-1.87,2.6-4.76,6.01-6.34,1.3-.65,2.59-.64,2.9,1,.94,2.98,1.56,6.68,4.01,9.02,1.19.56,3-.82,4.12-.09.38.32.54,1,.74,1.5,1.48,4.12,5.87,3.63,9.06,4.96,1.26.39,1.9,1.99,2.52,2.71,1.06.84,4.02.9,4.73.91.4,0,.57-.16.57-.46,0-.47,1.66-.45,2.03-.98.21-.34.57-.59.97-.44.33.18.43.6.63.91.57,1.03,1.15-.13,2.75.79.34.18.84.54,1.2.54.64-.02,1.32-1.49,1.76-1.64.45-.16.93.37,1.34.52.55.25.66-.06.69-.6-.01-.77-.04-2.05.96-2.1,1.31-.15,1.45,1.57,2.56,1.35.45-.07,1.17-.2,2-.35,6.12-11.07,9.59-24.58,9.59-40.74,0-59.48-44.06-77.1-95.46-77.1h-90.32v153.81s.02,0,.03,0c1.31.25,1.73-1.29,2.84-1.74ZM147.32,113.72h22.76c24.97,0,38.18,6.61,38.18,27.17s-13.22,31.57-38.18,31.57h-22.76v-58.74Z"/>
  <path class="cls-1" d="M250.64,195.03c-3.57-2.15-7.07-4.69-11.31-4.5-1.79.16-2.61.97-3.47.81-6.41-1.87-12.02-2.9-17.1-6.51-1.23-.96-1.58-1.01-2.15-2.46-.38-.9-.63-1.94-1.19-2.74-.87-1.37-2.23.04-3.07,1.3-.9,1.14-1.92,1.68-2.82,2.78-2.61,3.02-9.63,4.82-13.19,7.89-2.16,1.83-3.13.58-5.05,2.64-1.45,1.66-4.33,3.03-6.48,3.86-3.97,1.53-8.17,2.33-12.45,2.38-.57.01-1.17-.11-1.53-.57-.41-.5-.66-1.28-1.34-1.64-.46-.27-1.14-.33-1.71-.32-4.79.02-6.8,3.65-10.1,5.26-4.2,2.08-10.09.51-13.61,2.73-1.05.59-1.51,2.17-2.67,2.6-.95.3-2.61-.39-3.54-.09-.44.14-.73.45-.99.87-4.57,7.52-18.17,7.41-25.18,9.94-.8.28-1.39.78-1.79,1.54-1.38,2.5-1.87,3.92-3.84,6.94-.95,1.69-3.12,1.68-4.7,2.49-1.38.69-2.84,1.15-4.27,1.75-1.62.62-2.6,2.17-4.01,3.28-1.17,1.11-2.9.08-4.43.66-1.16.44-2.72.98-4.48,1.56v64.98h63.15v-80.04h24.27l41.08,80.04h70.49l-51.86-92.66c7.3-3.93,13.82-8.82,19.34-14.74Z"/>
  <path class="cls-1" d="M323.55,32.95c-20.56,0-35.25,13.22-35.25,31.57s14.69,31.57,35.25,31.57,35.25-13.22,35.25-31.57-14.69-31.57-35.25-31.57Z"/>
  <path class="cls-1" d="M347.89,229.48c-3.31.22-6.51,1.88-9.88,1.56-1.42-.08-2.83-.72-3.81-1.76-2.59-2.5-6.61-.02-9.79-.93-1.71-.31-2.06-2.31-3.33-3.19-1.17-.73-3.39-.26-4.23-.73-2.61-2.14-3.88-7.97-8.95-6.9-.79.04-1.08-.42-1.62-1.05-1.67-1.72-3.12-4.81-5.5-5.27-1.39-.28-2.98-.25-4.15-1.05-1.7-1.23-3.28-3.48-4.65-5.11v97.37h63.15v-72.18c-2.61-.26-5.15-.88-7.23-.77Z"/>
  <path class="cls-1" d="M291.97,191.84c1.58,1.22,2.29,3.4,3.09,5.37.32.45.91.3,1.38.27.69-.06.81.39.9,1.02.07.67.25,1.36.61,1.89,2.76,3.88,10.18,2.95,12.98,4.53.53.45.65,1.29,1.15,1.84.35.48.94.79,1.51.95,2.61.63,8.29-1.29,10.23-1.44,2.73,0,6.19.48,9.17.75,6.24.1,11.58,4.99,18.08,1.49.95-.62,2.02-.92,2.81.02.42.46.68.39,1.26.28v-89.94h-63.15v72.98Z"/>
  <path class="cls-1" d="M486.56,114.46c-18.36,0-36.35,8.81-49.93,21.29h-1.47l-4.41-16.89h-51.4v91.19c1.69-.39,2.93-2.41,2.06-3.94-.21-.55-.47-1.23.21-1.54.42-.16.82-.24,1.27-.26,1.97-.26,3.41,1.1,5.17,1.49,2.04.21,5.47-1.35,8.98-.53,1.04.19,1.43.75,1.2,1.67-.05.3.37.29,1.07.09.87-.18,1.42-.51,1.91-.07.78,1.06.98,3.03,1.87,3.94.52.11,1.48-1.63,2.11-1.53.46,0,.86.52,1.16.9,2.38,2.92,4.48,4.31,9.4,4.03,1.49-.04,2.85-.65,2.75,1.49-.02,1.4.49,2,1.81,1.98,3.59.12,5.99.66,8.48,2.54,1.19.8,2.17-1.37,2.9-2.01.31-.31.51-.42.81-.19.35.29.93,1.15,1.52,1.9.53.7.92,1.24.97,1.08.02-.56-.37-1.34.15-1.79,1.06-.48,1.89.51,2.59,1.18.93.92,2.66,1.63,3.92,1.86.29.05.58.08.88.1v-43.38c8.08-9.55,15.42-13.22,24.97-13.22,16.89,0,25.7,12.48,25.7,42.59,0,2.26-.05,4.41-.15,6.48.65.46,1.23.86,1.76,1.07,1.08.17,2.33-.21,3.51.11,2.78.65,4.97,2.59,6.92,4.53.91,1.06,1.77,1.61,3.07,1.28,5.27-.93,13,.6,17.87,2.07,2.75,1.06,1.24,2.44,3.79-.46,1.84-2.41,8.69.8,11.17.76,2.22.19,4.5-.66,6.71-.04,2.55.43,3.31,3.61,5.75,4.14.8.19,1.72.42,2.69.64.99-6.71,1.53-13.82,1.53-21.31,0-56.54-27.9-93.25-71.23-93.25Z"/>
  <path class="cls-1" d="M542.39,236.35c-1.28,0-2.54-.08-3.57-.79-9.51-7.03-8.48-1.29-15.01-5.08-1.19-.66-2-.99-2.93-1.09-3.72-.3-14.97-.54-20.28-.13-1.26.39-2.05,2.15-3.51,2.41-1.42.33-3.93.68-6.58.93-4.43,16.7-13.89,22.83-24.5,22.83-8.08,0-16.15-2.2-23.5-8.81v-11.23c-4.87.6-10,2.27-14.12,2.71-6.48.78-10.2,2.23-14.8-3.15-.14-.1-.3-.18-.47-.24-.76-.29-1.94-.2-2.81-.21-1.56.06-3.06-.55-4.35-1.13-2.76-1.39-5.8-2.42-9.06-2.4-2.05,0-4.32.52-6.41.79-1.36.18-1.86.25-2.74-.44-2.38-1.82-5.22-6.75-8.4-8.69v144.41h63.15v-50.67l-2.2-27.9c11.75,11.75,25.7,18.36,41.12,18.36,31.8,0,62.61-24.02,72.82-67.25-1.66-.66-3.34-1.36-5.07-2.12-2.15-.98-4.63-1.23-6.78-1.11Z"/>
  <path class="cls-1" d="M743.58,250.01c-2.94-1.98-8.12-2.64-11.12-3.48-.74-.22-1.5-.39-2.05-.94-.72-.65-.89-2.2-1.68-3.18-2.1-2.34-5.31-2.57-9.02-2.72-6.34-.12-12.59,1.59-17.5,2.01-1.33-.02-2.83-.46-4.18-.09-2.58.5-4.97,3.25-7.68,2.62-.72-.19-1.49-.54-2.21-.62-3,.06-7.13,1.89-10.18,3.79-4.76,5.7-10.86,8.04-17.4,8.04-4.6,0-9.2-.72-13.66-2.55-3.61.02-7.2-.15-10.61-.46-4.82-.5-9.86-1.81-14.66-1.15-4.65.55-9.98,3.3-14.89,3.24-1.65-.68-3.81-2.58-5.45-3.32-.69-.23-1.39.08-2.07.3-6.59,2.79-11.41-2.92-17.31-3.92-2.8-.58-5.45-1.18-8-1.8v121.27h63.15v-50.67l-2.2-27.9c11.75,11.75,25.7,18.36,41.12,18.36,28.65,0,56.51-19.51,69.21-55-.46-.66-.88-1.34-1.62-1.83Z"/>
  <path class="cls-1" d="M681.14,114.46c-18.36,0-36.35,8.81-49.93,21.29h-1.47l-4.41-16.89h-51.4v113c6.58,1.35,14.83,1.7,17.45-.73.29-.35.4-.86.96-.67.92.33,3.81,1.81,4.99,2.32.44.21.88.16,1.26-.16.29-.16.53-.55.83-.42.13.11.22.48.26.71.27,1.71,2.64,2.21,3.33,3.67.72,1.7,1.4-.5,2.38-.63.53.15.79.72,1.31.94,1.15.41,2.53.46,3.68,1.03,3.99,1.74,9.31,1.95,13.07,4.95.61.33,1.22.44,1.92.48,3.24.27,8.27-1.02,11.5-1.46.25.08.2.42.09.84-.15.49-.19.95.12,1.17v-64.82c8.08-9.55,15.42-13.22,24.97-13.22,16.89,0,25.7,12.48,25.7,42.59,0,10.74-1.17,19.29-3.19,26,1.31-.15,2.58-.27,3.76-.28,1.47.02,2.82.79,4.33,1.18,6.8.81,14.41-3.68,21.63-3.69.47-.03.82-.02,1.11-.33.48-.53.14-2.54.27-3.19.02-.12.06-.3.15-.38.15-.15.38-.12.61-.1,2.55.33,6.77,1.49,8.87,2.06,2.34.81,4.66,1.24,6.98,2.27,1.67.72,2.44,2.9,4.2,3.11,3.31.18,9.48-1.22,13.24.48,1.73-8.59,2.67-17.89,2.67-27.87,0-56.54-27.9-93.25-71.23-93.25Z"/>
  <path class="cls-1" d="M847.08,114.46c-44.79,0-88.11,36.71-88.11,96.19,0,8.94.89,17.32,2.57,25.13,1.76.44,3.64.83,5.66.7,2.87.03,4.83-1.95,7.28-2.99,4.07-1.38,8.75-.2,12.64-.96.79-.24,1.32-.92,1.88-1.25,1.65-.56,3.6.13,5.47.08.61.03,1.14.27,1.43.86.23.41.37.91.56,1,.13.07.27-.06.41-.31.39-.58.48-1.58,1.33-1.4,1.74.3,8.1,1.46,10.01,1.8.27.04.54.1.65-.18.21-.42-.15-2.2.32-2.54.51-.34,1.34.14,1.92.08.52,0,.76-.44.9-.95.14-.46.32-.81.62-.76.24.03.57.27.81.42,2,1.3,3.68-2.35,9.43-2.07,2.48.12,2.48,1.95,4.98,1.41,8.55-2.54,14.67-1.03,23.07.66,1.49.19,4.91-3.17,6.24-2.85,2.63.41,5.64.38,8.3.9.93.05,1.21-.81,2.13-1.15.34-.13.77-.15,1.12-.04.26.08.45.23.59.46.28.5.63,1.54,1.06,2.6.07.16.13.31.19.46h2.91c-.09-.48-.07-.83.39-.77,1.8.2,2.45-1.25,3.71.15.61.5,3.62.67,4.33.15.56-.35,2.25-1,2.78-1.39.84-.69,4.78-.18,5.97.33.51.23,1.04.33,1.6.29,2.96-.34,2.26,1.79,4.51.51.38-.25.93-.53.59-.98-.31-.41,1.71-.01,1.61-1.01-.07-.54.2-1.06.63-1.36.31-.19.67-.23,1.04-.23,1.49,0,3.75,3.24,5.41,4.3h1.56c.23-.27.36-.67.5-1.06,1.04-3.11,3.78-3.35,7.51-3.78,1.32-.1,2.53-.73,3.7-1.12,1.71-.27,3.94.3,5.61.44.26.04.49.09.7.16.82-5.45,1.56-13.26,1.56-21.07,0-49.2-25.7-88.85-80.04-88.85ZM819.18,188.62c3.67-18.36,15.42-26.43,29.37-26.43,19.09,0,24.97,12.48,24.97,26.43h-54.34Z"/>
  <path class="cls-1" d="M862.5,259.11c-18.11,0-32.79-5.7-40.05-22.11-1.07.41-2.02.81-2.74,1.18-1.54.64-2.16,2.29-3.06,3.56-.59.75-1.43,1.13-2.33,1.26-2.97.47-7.3-.21-10.73.71-3.51.95-8.47,5.58-10.11,6.76-.99.64-1.98.33-3.22.33-4.95-.48-12.01-.79-16.29,3.17-1.25.93-2.75,1.92-4.26,1.76-.48-.06-1.1-.23-1.84-.45,14.91,33.16,47.1,51.54,85.8,51.54,20.56,0,46.99-7.34,66.82-21.3l-20.56-37.45c-13.22,7.34-24.97,11.01-37.45,11.01Z"/>
  <path class="cls-1" d="M1065.16,172.46l10.28-54.34c-5.14-2.2-11.38-3.67-22.76-3.67-17.99,0-38.55,11.01-52.13,35.98h-1.47l-4.41-31.57h-51.4v106.94c.1.05.21.09.31.12.6.22,1.05.13,1.42-.14.34-.24.7-.55,1.18-.65.87-.27,2.53-.02,3.06-.88.35-.52.28-1.22.34-1.8,0-.89.96-.65,1.53-.54.76.09,1.05-.41,1.48-1.23.34-.66.7-1.26,1.19-1.42.55-.19,1.12-.05,1.71,0,2.5.27,4.93-.91,6.21-1.16,2.27-.19,4.45,1.36,6.53,2.18,2.85,1.46,5.46,1.68,8.52,2.17.55.11,1.08.23,1.49.52.74.46.9,1.62,1.1,2.07.18.33.47.35.98.37,2.27.06,8.33-.26,10.01-.41,1.01-.05,1.34-1.04,2.29-1.45.95-.63,2.8-.01,3.75-.1.36-.11.34-.13.52-.21.36-.18.73-.38,1.15-.27.67.21,1.25.9,1.71,1.21.51.39,1.42.67,2.19.77.86.14,1.85.18,2.77.16.6-.02,1.16-.07,1.69-.14v-24.6c8.81-22.76,24.97-30.84,38.18-30.84,8.08,0,13.95,1.47,20.56,2.94Z"/>
  <path class="cls-1" d="M1002.64,237.44c-1.22.33-2.68-2.14-3.28-1.68-.35.28-.84.31-1.28.43-1.65.42-2.72,1.53-4.17,2.05-3.04,1.18-7.32-.37-9.48-.66-3.89-.19-8.44,2.83-12.13,3.77-2.58.83-5.3-.25-7.91.1-2.21.34-4.31,1.85-7.1,2.19-3.34.3-7.08-.51-11.68-.91-.86-.12-1.61-.18-2.34-.27v59.96h63.15v-63.28c-1.79.15-1.87-2.29-3.78-1.71Z"/>
  <path class="cls-1" d="M1079.12,230.47c-21.29,0-36.71,16.89-36.71,38.18s15.42,38.18,36.71,38.18,36.71-16.89,36.71-38.18-15.42-38.18-36.71-38.18Z"/>
</svg>